STARTFONT 2.1
FONT -Adobe-ITC Bookman-Demi-R-Normal--17-120-100-100-P-100-ISO8859-1
SIZE 12 100 100
FONTBOUNDINGBOX 25 17 -3 -4

STARTPROPERTIES 26
_DEC_DEVICE_FONTNAMES "PS=Bookman-Demi"
FONTNAME_REGISTRY ""
FAMILY_NAME "ITC Bookman"
FOUNDRY "Adobe"
WEIGHT_NAME "Demi"
SLANT "R"
SETWIDTH_NAME "Normal"
ADD_STYLE_NAME ""
PIXEL_SIZE 17
POINT_SIZE 120
RESOLUTION_X 100
RESOLUTION_Y 100
SPACING "P"
AVERAGE_WIDTH 100
CHARSET_REGISTRY "ISO8859"
CHARSET_ENCODING "1"
CHARSET_COLLECTIONS "ASCII ISO8859-1 ADOBE-STANDARD"
FULL_NAME "ITC Bookman Demi"
COPYRIGHT "Copyright (c) 1991 Adobe Systems, Inc."
CAP_HEIGHT 12
X_HEIGHT 9
WEIGHT 10
QUAD_WIDTH 12
DEFAULT_CHAR 0
FONT_DESCENT 4
FONT_ASCENT 13
ENDPROPERTIES

CHARS 190

STARTCHAR space
ENCODING 32
SWIDTH 340 0
DWIDTH 5 0
BBX 1 1 0 0
BITMAP
00
ENDCHAR

STARTCHAR exclam
ENCODING 33
SWIDTH 360 0
DWIDTH 6 0
BBX 3 12 1 0
BITMAP
40
E0
E0
E0
E0
E0
40
00
40
E0
E0
40
ENDCHAR

STARTCHAR quotedbl
ENCODING 34
SWIDTH 420 0
DWIDTH 7 0
BBX 6 5 0 7
BITMAP
CC
CC
CC
88
88
ENDCHAR

STARTCHAR numbersign
ENCODING 35
SWIDTH 660 0
DWIDTH 11 0
BBX 9 12 1 0
BITMAP
1B00
1B00
1B00
1B00
7F80
3600
3600
FF00
6C00
6C00
6C00
6C00
ENDCHAR

STARTCHAR dollar
ENCODING 36
SWIDTH 660 0
DWIDTH 11 0
BBX 9 15 1 -2
BITMAP
0800
0800
3F00
6380
C180
E000
FE00
3F80
0380
C180
E300
7E00
0800
0800
0800
ENDCHAR

STARTCHAR percent
ENCODING 37
SWIDTH 940 0
DWIDTH 15 0
BBX 14 12 0 0
BITMAP
3040
48C0
CC80
CD80
CD00
4B30
3248
06CC
04CC
0CCC
0848
1830
ENDCHAR

STARTCHAR ampersand
ENCODING 38
SWIDTH 800 0
DWIDTH 13 0
BBX 12 12 0 0
BITMAP
3C00
7E00
6600
6600
7EF0
3CE0
7EC0
EFC0
C780
E3C0
FFF0
7CF0
ENDCHAR

STARTCHAR quoteright
ENCODING 39
SWIDTH 320 0
DWIDTH 5 0
BBX 4 5 0 7
BITMAP
60
F0
70
20
40
ENDCHAR

STARTCHAR parenleft
ENCODING 40
SWIDTH 320 0
DWIDTH 5 0
BBX 4 15 1 -2
BITMAP
30
70
60
E0
C0
C0
C0
C0
C0
C0
C0
E0
60
70
30
ENDCHAR

STARTCHAR parenright
ENCODING 41
SWIDTH 320 0
DWIDTH 5 0
BBX 4 15 0 -2
BITMAP
C0
E0
60
70
30
30
30
30
30
30
30
70
60
E0
C0
ENDCHAR

STARTCHAR asterisk
ENCODING 42
SWIDTH 460 0
DWIDTH 8 0
BBX 7 7 0 5
BITMAP
10
54
D6
38
D6
54
10
ENDCHAR

STARTCHAR plus
ENCODING 43
SWIDTH 600 0
DWIDTH 10 0
BBX 8 8 1 0
BITMAP
18
18
18
FF
FF
18
18
18
ENDCHAR

STARTCHAR comma
ENCODING 44
SWIDTH 340 0
DWIDTH 5 0
BBX 4 5 0 -2
BITMAP
60
F0
70
20
40
ENDCHAR

STARTCHAR minus
ENCODING 45
SWIDTH 600 0
DWIDTH 10 0
BBX 8 2 1 3
BITMAP
FF
FF
ENDCHAR

STARTCHAR period
ENCODING 46
SWIDTH 340 0
DWIDTH 5 0
BBX 4 3 0 0
BITMAP
60
F0
60
ENDCHAR

STARTCHAR slash
ENCODING 47
SWIDTH 600 0
DWIDTH 10 0
BBX 8 15 1 -3
BITMAP
03
03
06
06
0C
0C
18
18
18
30
30
60
60
C0
C0
ENDCHAR

STARTCHAR zero
ENCODING 48
SWIDTH 660 0
DWIDTH 11 0
BBX 10 12 0 0
BITMAP
1E00
3F00
7380
6180
E1C0
E1C0
E1C0
E1C0
6180
7380
3F00
1E00
ENDCHAR

STARTCHAR one
ENCODING 49
SWIDTH 660 0
DWIDTH 11 0
BBX 7 12 2 0
BITMAP
18
F8
F8
38
38
38
38
38
38
38
FE
FE
ENDCHAR

STARTCHAR two
ENCODING 50
SWIDTH 660 0
DWIDTH 11 0
BBX 10 12 0 0
BITMAP
3E00
7700
E380
E380
4380
0700
0E00
1C00
38C0
E1C0
FF80
FF80
ENDCHAR

STARTCHAR three
ENCODING 51
SWIDTH 660 0
DWIDTH 11 0
BBX 9 12 1 0
BITMAP
3E00
7F00
E380
E380
4300
0E00
0F00
4380
E380
E380
7F00
3E00
ENDCHAR

STARTCHAR four
ENCODING 52
SWIDTH 660 0
DWIDTH 11 0
BBX 9 12 1 0
BITMAP
0600
0E00
1E00
3600
3600
6600
C600
FF80
FF80
0600
1F80
1F80
ENDCHAR

STARTCHAR five
ENCODING 53
SWIDTH 660 0
DWIDTH 11 0
BBX 10 13 0 0
BITMAP
0080
7F80
7F80
6000
6000
7F00
7F80
43C0
01C0
41C0
E380
F780
3E00
ENDCHAR

STARTCHAR six
ENCODING 54
SWIDTH 660 0
DWIDTH 11 0
BBX 10 12 0 0
BITMAP
1F00
7B80
7180
E000
EF00
FB80
E180
E1C0
E1C0
7380
7F80
1E00
ENDCHAR

STARTCHAR seven
ENCODING 55
SWIDTH 660 0
DWIDTH 11 0
BBX 10 12 0 0
BITMAP
FFC0
FFC0
C180
8300
0700
0600
0E00
0E00
1C00
1C00
3C00
3C00
ENDCHAR

STARTCHAR eight
ENCODING 56
SWIDTH 660 0
DWIDTH 11 0
BBX 9 12 1 0
BITMAP
1E00
7F00
7380
E180
7B00
3E00
7F00
E780
C180
E380
7F00
3E00
ENDCHAR

STARTCHAR nine
ENCODING 57
SWIDTH 660 0
DWIDTH 11 0
BBX 10 12 0 0
BITMAP
1E00
7F80
7380
E1C0
E1C0
61C0
77C0
3DC0
01C0
6380
7780
3E00
ENDCHAR

STARTCHAR colon
ENCODING 58
SWIDTH 340 0
DWIDTH 5 0
BBX 4 9 0 0
BITMAP
60
F0
60
00
00
00
60
F0
60
ENDCHAR

STARTCHAR semicolon
ENCODING 59
SWIDTH 340 0
DWIDTH 5 0
BBX 4 11 0 -2
BITMAP
60
F0
60
00
00
00
60
F0
70
20
40
ENDCHAR

STARTCHAR less
ENCODING 60
SWIDTH 600 0
DWIDTH 10 0
BBX 8 9 1 0
BITMAP
01
07
1E
78
E0
78
1E
07
01
ENDCHAR

STARTCHAR equal
ENCODING 61
SWIDTH 600 0
DWIDTH 10 0
BBX 8 5 1 2
BITMAP
FF
FF
00
FF
FF
ENDCHAR

STARTCHAR greater
ENCODING 62
SWIDTH 600 0
DWIDTH 10 0
BBX 8 9 0 0
BITMAP
80
E0
78
1E
07
1E
78
E0
80
ENDCHAR

STARTCHAR question
ENCODING 63
SWIDTH 660 0
DWIDTH 11 0
BBX 9 12 1 0
BITMAP
3E00
7700
E380
E380
4380
0700
0C00
0C00
0000
0C00
1E00
0C00
ENDCHAR

STARTCHAR at
ENCODING 64
SWIDTH 820 0
DWIDTH 14 0
BBX 12 12 1 0
BITMAP
0700
18C0
2020
46E0
4D90
9890
99A0
9120
5B40
4C90
3060
0F80
ENDCHAR

STARTCHAR A
ENCODING 65
SWIDTH 720 0
DWIDTH 12 0
BBX 12 12 0 0
BITMAP
0600
0600
0F00
0F00
1B80
1B80
3180
3FC0
7FC0
60E0
F1F0
F1F0
ENDCHAR

STARTCHAR B
ENCODING 66
SWIDTH 720 0
DWIDTH 12 0
BBX 11 12 0 0
BITMAP
FF80
FFC0
71E0
70E0
71C0
7F80
7FC0
71E0
70E0
71E0
FFC0
FF80
ENDCHAR

STARTCHAR C
ENCODING 67
SWIDTH 740 0
DWIDTH 12 0
BBX 11 12 0 0
BITMAP
0EC0
3FC0
78E0
7060
E020
E000
E000
E000
7060
78E0
3FC0
0F00
ENDCHAR

STARTCHAR D
ENCODING 68
SWIDTH 780 0
DWIDTH 13 0
BBX 12 12 0 0
BITMAP
FF00
FFC0
71E0
70E0
7070
7070
7070
7070
70E0
71E0
FFC0
FF00
ENDCHAR

STARTCHAR E
ENCODING 69
SWIDTH 720 0
DWIDTH 12 0
BBX 11 12 0 0
BITMAP
FF80
FF80
70C0
7240
7600
7E00
7E00
7200
7060
70C0
FFC0
FF80
ENDCHAR

STARTCHAR F
ENCODING 70
SWIDTH 680 0
DWIDTH 11 0
BBX 10 12 0 0
BITMAP
FF80
FF80
70C0
7240
7600
7E00
7E00
7200
7000
7000
F800
F800
ENDCHAR

STARTCHAR G
ENCODING 71
SWIDTH 780 0
DWIDTH 13 0
BBX 12 12 0 0
BITMAP
0EC0
3FC0
78E0
7060
E020
E000
E1F0
E0E0
70E0
79E0
3FE0
0E60
ENDCHAR

STARTCHAR H
ENCODING 72
SWIDTH 820 0
DWIDTH 13 0
BBX 12 12 0 0
BITMAP
F9F0
F9F0
70E0
70E0
70E0
7FE0
7FE0
70E0
70E0
70E0
F9F0
F9F0
ENDCHAR

STARTCHAR I
ENCODING 73
SWIDTH 400 0
DWIDTH 7 0
BBX 5 12 1 0
BITMAP
F8
F8
70
70
70
70
70
70
70
70
F8
F8
ENDCHAR

STARTCHAR J
ENCODING 74
SWIDTH 640 0
DWIDTH 11 0
BBX 10 12 0 0
BITMAP
07C0
07C0
0380
0380
0380
0380
4380
E380
E380
C700
7F00
3C00
ENDCHAR

STARTCHAR K
ENCODING 75
SWIDTH 800 0
DWIDTH 13 0
BBX 13 12 0 0
BITMAP
F9F0
F9F0
70C0
7180
7300
7700
7F80
7B80
71C0
71E0
FBF8
FBF8
ENDCHAR

STARTCHAR L
ENCODING 76
SWIDTH 640 0
DWIDTH 10 0
BBX 10 12 0 0
BITMAP
F800
F800
7000
7000
7000
7000
7000
7040
70C0
7380
FF80
FF00
ENDCHAR

STARTCHAR M
ENCODING 77
SWIDTH 940 0
DWIDTH 16 0
BBX 15 12 0 0
BITMAP
F83E
F83E
7C7C
7C7C
7CDC
6EDC
6F9C
679C
679C
631C
F33E
F33E
ENDCHAR

STARTCHAR N
ENCODING 78
SWIDTH 740 0
DWIDTH 12 0
BBX 10 12 1 0
BITMAP
F1C0
F9C0
7880
7C80
5C80
5E80
4E80
4F80
4780
4780
E380
E380
ENDCHAR

STARTCHAR O
ENCODING 79
SWIDTH 800 0
DWIDTH 13 0
BBX 12 12 0 0
BITMAP
0F00
3FC0
79E0
70E0
E070
E070
E070
E070
70E0
79E0
3FC0
0F00
ENDCHAR

STARTCHAR P
ENCODING 80
SWIDTH 660 0
DWIDTH 11 0
BBX 10 12 0 0
BITMAP
FE00
FF80
73C0
71C0
71C0
73C0
7F80
7E00
7000
7000
F800
F800
ENDCHAR

STARTCHAR Q
ENCODING 81
SWIDTH 800 0
DWIDTH 13 0
BBX 12 16 0 -4
BITMAP
0F00
3FC0
79E0
70E0
E070
E070
E070
E3F0
77E0
7CE0
3FF0
0F70
C070
E0E0
7FC0
1F00
ENDCHAR

STARTCHAR R
ENCODING 82
SWIDTH 780 0
DWIDTH 13 0
BBX 12 12 0 0
BITMAP
FF80
FFC0
71E0
70E0
71E0
7FC0
7F00
7780
7380
73C0
F9F0
F9F0
ENDCHAR

STARTCHAR S
ENCODING 83
SWIDTH 660 0
DWIDTH 11 0
BBX 10 12 0 0
BITMAP
3B00
7F00
E380
E180
F800
7F00
3F80
87C0
C1C0
E1C0
7F80
6F00
ENDCHAR

STARTCHAR T
ENCODING 84
SWIDTH 700 0
DWIDTH 12 0
BBX 11 12 0 0
BITMAP
7FC0
7FC0
CE60
8E20
0E00
0E00
0E00
0E00
0E00
0E00
1F00
1F00
ENDCHAR

STARTCHAR U
ENCODING 85
SWIDTH 740 0
DWIDTH 12 0
BBX 11 12 0 0
BITMAP
F9E0
F9E0
70C0
70C0
70C0
70C0
70C0
70C0
70C0
79C0
3F80
1F00
ENDCHAR

STARTCHAR V
ENCODING 86
SWIDTH 720 0
DWIDTH 11 0
BBX 12 12 -1 0
BITMAP
F8F0
F8F0
7060
3840
38C0
1C80
1D80
1D00
0F00
0F00
0600
0600
ENDCHAR

STARTCHAR W
ENCODING 87
SWIDTH 940 0
DWIDTH 15 0
BBX 15 12 0 0
BITMAP
FBEE
FBEE
71C4
71C4
71CC
39E8
3AE8
3AE8
3EF8
1C70
1C70
1C70
ENDCHAR

STARTCHAR X
ENCODING 88
SWIDTH 780 0
DWIDTH 13 0
BBX 13 12 0 0
BITMAP
FCF8
7870
3C60
1CC0
0F80
0F00
0780
0FC0
19C0
31E0
70F0
F9F8
ENDCHAR

STARTCHAR Y
ENCODING 89
SWIDTH 700 0
DWIDTH 12 0
BBX 13 12 -1 0
BITMAP
FC78
7830
3C60
1CC0
1F80
0F80
0700
0700
0700
0700
0F80
0F80
ENDCHAR

STARTCHAR Z
ENCODING 90
SWIDTH 640 0
DWIDTH 11 0
BBX 11 12 0 0
BITMAP
7FC0
7FC0
C380
8700
0F00
0E00
1C00
3820
3860
70C0
FFC0
FF80
ENDCHAR

STARTCHAR bracketleft
ENCODING 91
SWIDTH 300 0
DWIDTH 5 0
BBX 3 13 1 -1
BITMAP
E0
E0
C0
C0
C0
C0
C0
C0
C0
C0
C0
E0
E0
ENDCHAR

STARTCHAR backslash
ENCODING 92
SWIDTH 600 0
DWIDTH 10 0
BBX 7 12 1 0
BITMAP
C0
C0
60
60
30
30
18
18
0C
0C
06
06
ENDCHAR

STARTCHAR bracketright
ENCODING 93
SWIDTH 300 0
DWIDTH 5 0
BBX 3 13 0 -1
BITMAP
E0
E0
60
60
60
60
60
60
60
60
60
E0
E0
ENDCHAR

STARTCHAR asciicircum
ENCODING 94
SWIDTH 600 0
DWIDTH 10 0
BBX 8 7 1 5
BITMAP
18
3C
3C
66
66
C3
C3
ENDCHAR

STARTCHAR underscore
ENCODING 95
SWIDTH 500 0
DWIDTH 8 0
BBX 8 1 0 -3
BITMAP
FF
ENDCHAR

STARTCHAR quoteleft
ENCODING 96
SWIDTH 320 0
DWIDTH 5 0
BBX 4 5 0 7
BITMAP
20
40
E0
F0
60
ENDCHAR

STARTCHAR a
ENCODING 97
SWIDTH 580 0
DWIDTH 10 0
BBX 9 9 0 0
BITMAP
3E00
7F00
E300
4F00
3F00
7300
E700
FF80
7380
ENDCHAR

STARTCHAR b
ENCODING 98
SWIDTH 600 0
DWIDTH 10 0
BBX 10 12 -1 0
BITMAP
3000
F000
F000
7600
7F80
7380
71C0
71C0
71C0
7380
7F80
6E00
ENDCHAR

STARTCHAR c
ENCODING 99
SWIDTH 580 0
DWIDTH 9 0
BBX 9 9 0 0
BITMAP
1E00
7F00
7380
E300
E000
E000
7300
7F00
1E00
ENDCHAR

STARTCHAR d
ENCODING 100
SWIDTH 640 0
DWIDTH 11 0
BBX 10 12 0 0
BITMAP
0180
0780
0380
1B80
7F80
7380
E380
E380
E380
7380
7FC0
1DC0
ENDCHAR

STARTCHAR e
ENCODING 101
SWIDTH 580 0
DWIDTH 9 0
BBX 9 9 0 0
BITMAP
1E00
7F00
7380
FF80
E000
E000
7300
7F00
1E00
ENDCHAR

STARTCHAR f
ENCODING 102
SWIDTH 380 0
DWIDTH 6 0
BBX 8 12 0 0
BITMAP
1E
3F
72
F8
F8
70
70
70
70
70
F8
F8
ENDCHAR

STARTCHAR g
ENCODING 103
SWIDTH 580 0
DWIDTH 10 0
BBX 9 14 0 -4
BITMAP
0180
1F80
3E00
7700
6300
6300
7700
3E00
7000
FF00
7F80
C380
E700
7E00
ENDCHAR

STARTCHAR h
ENCODING 104
SWIDTH 680 0
DWIDTH 11 0
BBX 10 12 0 0
BITMAP
3000
F000
F000
7700
7F80
7B80
7380
7380
7380
7380
FBC0
FBC0
ENDCHAR

STARTCHAR i
ENCODING 105
SWIDTH 360 0
DWIDTH 6 0
BBX 5 12 0 0
BITMAP
60
F0
60
30
F0
F0
70
70
70
70
F8
F8
ENDCHAR

STARTCHAR j
ENCODING 106
SWIDTH 340 0
DWIDTH 6 0
BBX 7 16 -3 -4
BITMAP
0C
1E
0C
06
1E
1E
0E
0E
0E
0E
0E
0E
0E
CC
FC
70
ENDCHAR

STARTCHAR k
ENCODING 107
SWIDTH 660 0
DWIDTH 11 0
BBX 11 12 0 0
BITMAP
3000
F000
F000
77C0
7380
7700
7E00
7F00
7700
7380
FBC0
FBE0
ENDCHAR

STARTCHAR l
ENCODING 108
SWIDTH 340 0
DWIDTH 6 0
BBX 5 12 0 0
BITMAP
30
F0
F0
70
70
70
70
70
70
70
F8
F8
ENDCHAR

STARTCHAR m
ENCODING 109
SWIDTH 1000 0
DWIDTH 16 0
BBX 15 9 0 0
BITMAP
7738
FFFC
FBDC
739C
739C
739C
739C
FBDE
FBDE
ENDCHAR

STARTCHAR n
ENCODING 110
SWIDTH 680 0
DWIDTH 11 0
BBX 10 9 0 0
BITMAP
3700
FF80
FB80
7380
7380
7380
7380
FBC0
FBC0
ENDCHAR

STARTCHAR o
ENCODING 111
SWIDTH 620 0
DWIDTH 10 0
BBX 9 9 0 0
BITMAP
1C00
7F00
7700
E380
E380
E380
7700
7F00
1C00
ENDCHAR

STARTCHAR p
ENCODING 112
SWIDTH 640 0
DWIDTH 11 0
BBX 10 13 0 -4
BITMAP
3600
FF80
F380
71C0
71C0
71C0
7380
7F80
7600
7000
7000
F800
F800
ENDCHAR

STARTCHAR q
ENCODING 113
SWIDTH 620 0
DWIDTH 10 0
BBX 10 13 0 -4
BITMAP
1980
7F80
7380
E380
E380
E380
7380
7F80
1B80
0380
0380
07C0
07C0
ENDCHAR

STARTCHAR r
ENCODING 114
SWIDTH 460 0
DWIDTH 8 0
BBX 8 9 0 0
BITMAP
76
FF
F6
70
70
70
70
F8
F8
ENDCHAR

STARTCHAR s
ENCODING 115
SWIDTH 520 0
DWIDTH 9 0
BBX 8 9 0 0
BITMAP
3E
7E
E3
F8
7E
1F
C7
7E
7C
ENDCHAR

STARTCHAR t
ENCODING 116
SWIDTH 460 0
DWIDTH 8 0
BBX 6 12 0 0
BITMAP
30
30
70
FC
FC
70
70
70
70
74
7C
38
ENDCHAR

STARTCHAR u
ENCODING 117
SWIDTH 660 0
DWIDTH 11 0
BBX 10 9 0 0
BITMAP
3180
F780
F780
7380
7380
7380
7780
7FC0
3BC0
ENDCHAR

STARTCHAR v
ENCODING 118
SWIDTH 600 0
DWIDTH 10 0
BBX 10 9 0 0
BITMAP
FBC0
FBC0
7180
3900
3B00
1E00
1E00
0C00
0C00
ENDCHAR

STARTCHAR w
ENCODING 119
SWIDTH 800 0
DWIDTH 13 0
BBX 12 9 0 0
BITMAP
F770
F770
6660
7760
3740
3FC0
3BC0
1980
1980
ENDCHAR

STARTCHAR x
ENCODING 120
SWIDTH 600 0
DWIDTH 9 0
BBX 8 9 0 0
BITMAP
F7
E7
76
7C
3C
3E
6E
E7
EF
ENDCHAR

STARTCHAR y
ENCODING 121
SWIDTH 620 0
DWIDTH 10 0
BBX 11 13 -1 -4
BITMAP
7DE0
7DE0
38C0
1C80
1D80
0F00
0F00
0600
0600
0C00
6C00
F800
7000
ENDCHAR

STARTCHAR z
ENCODING 122
SWIDTH 560 0
DWIDTH 9 0
BBX 9 9 0 0
BITMAP
7F00
7F00
CE00
1C00
3800
3980
7380
FF00
FF00
ENDCHAR

STARTCHAR braceleft
ENCODING 123
SWIDTH 320 0
DWIDTH 5 0
BBX 4 15 0 -2
BITMAP
30
60
60
60
60
60
60
C0
60
60
60
60
60
60
30
ENDCHAR

STARTCHAR bar
ENCODING 124
SWIDTH 600 0
DWIDTH 10 0
BBX 2 12 4 0
BITMAP
C0
C0
C0
C0
C0
C0
C0
C0
C0
C0
C0
C0
ENDCHAR

STARTCHAR braceright
ENCODING 125
SWIDTH 320 0
DWIDTH 5 0
BBX 4 15 0 -2
BITMAP
C0
60
60
60
60
60
60
30
60
60
60
60
60
60
C0
ENDCHAR

STARTCHAR asciitilde
ENCODING 126
SWIDTH 600 0
DWIDTH 10 0
BBX 8 3 1 3
BITMAP
72
FF
4E
ENDCHAR

STARTCHAR exclamdown
ENCODING 161
SWIDTH 360 0
DWIDTH 6 0
BBX 3 13 1 -3
BITMAP
40
E0
E0
40
00
40
40
E0
E0
E0
E0
E0
40
ENDCHAR

STARTCHAR cent
ENCODING 162
SWIDTH 660 0
DWIDTH 11 0
BBX 6 10 2 1
BITMAP
10
10
3C
6C
C0
C0
64
38
10
10
ENDCHAR

STARTCHAR sterling
ENCODING 163
SWIDTH 660 0
DWIDTH 11 0
BBX 11 12 0 0
BITMAP
0F80
1DC0
38C0
30C0
3800
FF80
1800
1CC0
0C60
7C60
DFE0
73C0
ENDCHAR

STARTCHAR currency
ENCODING 164
SWIDTH 660 0
DWIDTH 11 0
BBX 8 8 1 2
BITMAP
5A
FF
66
C3
C3
66
FF
5A
ENDCHAR

STARTCHAR yen
ENCODING 165
SWIDTH 660 0
DWIDTH 11 0
BBX 11 12 0 0
BITMAP
F9E0
F9E0
70C0
3980
1F00
7FE0
0E00
7FE0
0E00
0E00
1F00
1F00
ENDCHAR

STARTCHAR brokenbar
ENCODING 166
SWIDTH 600 0
DWIDTH 10 0
BBX 2 12 4 0
BITMAP
C0
C0
C0
C0
00
00
00
00
C0
C0
C0
C0
ENDCHAR

STARTCHAR section
ENCODING 167
SWIDTH 600 0
DWIDTH 10 0
BBX 8 15 1 -3
BITMAP
3E
7F
C7
C2
F8
7E
CF
C3
F3
7E
1F
43
E3
FE
7C
ENDCHAR

STARTCHAR dieresis
ENCODING 168
SWIDTH 500 0
DWIDTH 8 0
BBX 7 3 1 10
BITMAP
44
EE
44
ENDCHAR

STARTCHAR copyright
ENCODING 169
SWIDTH 740 0
DWIDTH 12 0
BBX 12 12 0 0
BITMAP
0F00
39C0
6060
4720
C930
9810
9810
C930
4620
6060
39C0
0F00
ENDCHAR

STARTCHAR ordfeminine
ENCODING 170
SWIDTH 400 0
DWIDTH 7 0
BBX 6 7 0 5
BITMAP
70
98
78
D8
6C
00
FC
ENDCHAR

STARTCHAR guillemotleft
ENCODING 171
SWIDTH 400 0
DWIDTH 7 0
BBX 5 6 1 2
BITMAP
48
48
D8
D8
48
48
ENDCHAR

STARTCHAR logicalnot
ENCODING 172
SWIDTH 600 0
DWIDTH 10 0
BBX 8 5 1 2
BITMAP
FF
FF
03
03
03
ENDCHAR

STARTCHAR hyphen
ENCODING 173
SWIDTH 360 0
DWIDTH 5 0
BBX 4 2 0 3
BITMAP
F0
F0
ENDCHAR

STARTCHAR registered
ENCODING 174
SWIDTH 740 0
DWIDTH 12 0
BBX 12 12 0 0
BITMAP
0F00
39C0
6060
5E20
C930
8910
8E10
C930
5DA0
6060
39C0
0F00
ENDCHAR

STARTCHAR macron
ENCODING 175
SWIDTH 460 0
DWIDTH 7 0
BBX 5 1 2 10
BITMAP
F8
ENDCHAR

STARTCHAR degree
ENCODING 176
SWIDTH 400 0
DWIDTH 7 0
BBX 5 5 1 7
BITMAP
70
D8
88
D8
70
ENDCHAR

STARTCHAR plusminus
ENCODING 177
SWIDTH 600 0
DWIDTH 10 0
BBX 8 9 1 0
BITMAP
18
18
18
FF
FF
18
18
FF
FF
ENDCHAR

STARTCHAR twosuperior
ENCODING 178
SWIDTH 396 0
DWIDTH 7 0
BBX 6 7 0 5
BITMAP
78
CC
CC
18
30
64
FC
ENDCHAR

STARTCHAR threesuperior
ENCODING 179
SWIDTH 396 0
DWIDTH 7 0
BBX 6 7 0 5
BITMAP
78
CC
CC
18
CC
CC
78
ENDCHAR

STARTCHAR acute
ENCODING 180
SWIDTH 400 0
DWIDTH 6 0
BBX 4 3 2 10
BITMAP
30
70
C0
ENDCHAR

STARTCHAR mu
ENCODING 181
SWIDTH 660 0
DWIDTH 11 0
BBX 10 13 0 -4
BITMAP
3180
F780
F780
7380
7380
7380
7780
7FC0
7BC0
6000
7000
7000
6000
ENDCHAR

STARTCHAR paragraph
ENCODING 182
SWIDTH 800 0
DWIDTH 13 0
BBX 11 14 1 -2
BITMAP
7FE0
FDE0
FD80
FD80
FD80
FD80
7D80
0D80
0D80
0D80
0D80
0D80
3FE0
3FE0
ENDCHAR

STARTCHAR periodcentered
ENCODING 183
SWIDTH 340 0
DWIDTH 6 0
BBX 3 4 1 3
BITMAP
40
E0
E0
40
ENDCHAR

STARTCHAR cedilla
ENCODING 184
SWIDTH 360 0
DWIDTH 6 0
BBX 3 4 1 -3
BITMAP
80
E0
20
C0
ENDCHAR

STARTCHAR onesuperior
ENCODING 185
SWIDTH 396 0
DWIDTH 7 0
BBX 4 7 1 5
BITMAP
60
E0
60
60
60
60
F0
ENDCHAR

STARTCHAR ordmasculine
ENCODING 186
SWIDTH 400 0
DWIDTH 7 0
BBX 6 7 0 5
BITMAP
78
CC
CC
CC
78
00
FC
ENDCHAR

STARTCHAR guillemotright
ENCODING 187
SWIDTH 400 0
DWIDTH 7 0
BBX 5 6 1 2
BITMAP
90
90
D8
D8
90
90
ENDCHAR

STARTCHAR onequarter
ENCODING 188
SWIDTH 990 0
DWIDTH 16 0
BBX 13 12 1 0
BITMAP
60C0
E080
6180
6100
6300
6230
F670
04D0
0DB0
09F8
1830
1078
ENDCHAR

STARTCHAR onehalf
ENCODING 189
SWIDTH 990 0
DWIDTH 16 0
BBX 13 12 1 0
BITMAP
60C0
E080
6180
6100
6300
62F0
F798
0598
0C30
0860
18C8
11F8
ENDCHAR

STARTCHAR threequarters
ENCODING 190
SWIDTH 990 0
DWIDTH 16 0
BBX 14 12 1 0
BITMAP
7860
CC40
CCC0
1880
CD80
CD18
7B38
0268
06D8
04FC
0C18
083C
ENDCHAR

STARTCHAR questiondown
ENCODING 191
SWIDTH 660 0
DWIDTH 11 0
BBX 9 12 1 -3
BITMAP
1800
3C00
1800
0000
1800
1800
7000
E100
E380
E380
7700
3E00
ENDCHAR

STARTCHAR Agrave
ENCODING 192
SWIDTH 720 0
DWIDTH 12 0
BBX 12 13 0 0
BITMAP
0C00
0E00
0300
0000
0600
0700
0F00
1B80
11C0
3FC0
60E0
F1F0
F1F0
ENDCHAR

STARTCHAR Aacute
ENCODING 193
SWIDTH 720 0
DWIDTH 12 0
BBX 12 13 0 0
BITMAP
0300
0700
0C00
0000
0600
0700
0F00
1B80
11C0
3FC0
60E0
F1F0
F1F0
ENDCHAR

STARTCHAR Acircumflex
ENCODING 194
SWIDTH 720 0
DWIDTH 12 0
BBX 12 13 0 0
BITMAP
0600
0F00
1980
0000
0600
0700
0F00
1B80
11C0
3FC0
60E0
F1F0
F1F0
ENDCHAR

STARTCHAR Atilde
ENCODING 195
SWIDTH 720 0
DWIDTH 12 0
BBX 12 12 0 0
BITMAP
0E80
1700
0000
0600
0700
0F00
1B80
11C0
3FC0
60E0
F1F0
F1F0
ENDCHAR

STARTCHAR Adieresis
ENCODING 196
SWIDTH 720 0
DWIDTH 12 0
BBX 12 13 0 0
BITMAP
1100
3B80
1100
0000
0600
0700
0F00
1B80
11C0
3FC0
60E0
F1F0
F1F0
ENDCHAR

STARTCHAR Aring
ENCODING 197
SWIDTH 720 0
DWIDTH 12 0
BBX 12 13 0 0
BITMAP
0700
0D80
0D80
0700
0600
0700
0F00
1B80
11C0
3FC0
60E0
F1F0
F1F0
ENDCHAR

STARTCHAR AE
ENCODING 198
SWIDTH 1140 0
DWIDTH 19 0
BBX 18 12 0 0
BITMAP
01FF00
01FF00
03E180
02E480
06EC00
0CFC00
0FFC00
1FE400
30E0C0
70E180
F9FF80
F9FF00
ENDCHAR

STARTCHAR Ccedilla
ENCODING 199
SWIDTH 740 0
DWIDTH 12 0
BBX 11 15 0 -3
BITMAP
0EC0
3FC0
78E0
7060
E020
E000
E000
E000
7060
78E0
3FC0
0F00
0E00
0200
0C00
ENDCHAR

STARTCHAR Egrave
ENCODING 200
SWIDTH 720 0
DWIDTH 12 0
BBX 10 13 1 0
BITMAP
3000
3800
0C00
0000
FF80
FF80
70C0
7640
7E00
7240
70C0
FF80
FF80
ENDCHAR

STARTCHAR Eacute
ENCODING 201
SWIDTH 720 0
DWIDTH 12 0
BBX 10 13 1 0
BITMAP
0600
0E00
1800
0000
FF80
FF80
70C0
7640
7E00
7240
70C0
FF80
FF80
ENDCHAR

STARTCHAR Ecircumflex
ENCODING 202
SWIDTH 720 0
DWIDTH 12 0
BBX 10 13 1 0
BITMAP
0C00
1E00
3300
0000
FF80
FF80
70C0
7640
7E00
7240
70C0
FF80
FF80
ENDCHAR

STARTCHAR Edieresis
ENCODING 203
SWIDTH 720 0
DWIDTH 12 0
BBX 10 13 1 0
BITMAP
2200
7700
2200
0000
FF80
FF80
70C0
7640
7E00
7240
70C0
FF80
FF80
ENDCHAR

STARTCHAR Igrave
ENCODING 204
SWIDTH 400 0
DWIDTH 7 0
BBX 5 13 1 0
BITMAP
C0
E0
30
00
F8
F8
70
70
70
70
70
F8
F8
ENDCHAR

STARTCHAR Iacute
ENCODING 205
SWIDTH 400 0
DWIDTH 7 0
BBX 5 13 1 0
BITMAP
18
38
60
00
F8
F8
70
70
70
70
70
F8
F8
ENDCHAR

STARTCHAR Icircumflex
ENCODING 206
SWIDTH 400 0
DWIDTH 7 0
BBX 6 13 0 0
BITMAP
30
78
CC
00
7C
7C
38
38
38
38
38
7C
7C
ENDCHAR

STARTCHAR Idieresis
ENCODING 207
SWIDTH 400 0
DWIDTH 7 0
BBX 7 13 0 0
BITMAP
44
EE
44
00
7C
7C
38
38
38
38
38
7C
7C
ENDCHAR

STARTCHAR Eth
ENCODING 208
SWIDTH 780 0
DWIDTH 13 0
BBX 12 12 0 0
BITMAP
FF00
FFC0
71E0
70E0
7070
FE70
FE70
7070
70E0
71E0
FFC0
FF00
ENDCHAR

STARTCHAR Ntilde
ENCODING 209
SWIDTH 740 0
DWIDTH 12 0
BBX 10 12 1 0
BITMAP
1D00
2E00
0000
F1C0
F9C0
7880
5C80
4E80
4E80
4780
E380
E380
ENDCHAR

STARTCHAR Ograve
ENCODING 210
SWIDTH 800 0
DWIDTH 13 0
BBX 12 13 0 0
BITMAP
0C00
0E00
0300
0000
0F00
3FC0
79E0
70E0
E070
70E0
79E0
3FC0
0F00
ENDCHAR

STARTCHAR Oacute
ENCODING 211
SWIDTH 800 0
DWIDTH 13 0
BBX 12 13 0 0
BITMAP
0300
0700
0C00
0000
0F00
3FC0
79E0
70E0
E070
70E0
79E0
3FC0
0F00
ENDCHAR

STARTCHAR Ocircumflex
ENCODING 212
SWIDTH 800 0
DWIDTH 13 0
BBX 12 13 0 0
BITMAP
0600
0F00
1980
0000
0F00
3FC0
79E0
70E0
E070
70E0
79E0
3FC0
0F00
ENDCHAR

STARTCHAR Otilde
ENCODING 213
SWIDTH 800 0
DWIDTH 13 0
BBX 12 12 0 0
BITMAP
0E80
1700
0000
0F00
3FC0
79E0
70E0
E070
70E0
79E0
3FC0
0F00
ENDCHAR

STARTCHAR Odieresis
ENCODING 214
SWIDTH 800 0
DWIDTH 13 0
BBX 12 13 0 0
BITMAP
1100
3B80
1100
0000
0F00
3FC0
79E0
70E0
E070
70E0
79E0
3FC0
0F00
ENDCHAR

STARTCHAR multiply
ENCODING 215
SWIDTH 600 0
DWIDTH 10 0
BBX 8 8 1 0
BITMAP
42
E7
7E
3C
3C
7E
E7
42
ENDCHAR

STARTCHAR Oslash
ENCODING 216
SWIDTH 800 0
DWIDTH 13 0
BBX 12 14 0 -1
BITMAP
0020
0F40
3FC0
79E0
71E0
E270
E270
E470
E470
78E0
79E0
3FC0
2F00
4000
ENDCHAR

STARTCHAR Ugrave
ENCODING 217
SWIDTH 740 0
DWIDTH 12 0
BBX 11 13 0 0
BITMAP
1800
1C00
0600
0000
F9E0
F9E0
70C0
70C0
70C0
70C0
79C0
3F80
1F00
ENDCHAR

STARTCHAR Uacute
ENCODING 218
SWIDTH 740 0
DWIDTH 12 0
BBX 11 13 0 0
BITMAP
0300
0700
0C00
0000
F9E0
F9E0
70C0
70C0
70C0
70C0
79C0
3F80
1F00
ENDCHAR

STARTCHAR Ucircumflex
ENCODING 219
SWIDTH 740 0
DWIDTH 12 0
BBX 11 13 0 0
BITMAP
0600
0F00
1980
0000
F9E0
F9E0
70C0
70C0
70C0
70C0
79C0
3F80
1F00
ENDCHAR

STARTCHAR Udieresis
ENCODING 220
SWIDTH 740 0
DWIDTH 12 0
BBX 11 13 0 0
BITMAP
1100
3B80
1100
0000
F9E0
F9E0
70C0
70C0
70C0
70C0
79C0
3F80
1F00
ENDCHAR

STARTCHAR Yacute
ENCODING 221
SWIDTH 700 0
DWIDTH 12 0
BBX 13 13 -1 0
BITMAP
00C0
01C0
0300
0000
FC78
7830
3C60
1EC0
0F80
0700
0700
0F80
0F80
ENDCHAR

STARTCHAR Thorn
ENCODING 222
SWIDTH 660 0
DWIDTH 11 0
BBX 10 12 0 0
BITMAP
F800
F800
7000
7F00
7F80
71C0
71C0
7F80
7F00
7000
F800
F800
ENDCHAR

STARTCHAR germandbls
ENCODING 223
SWIDTH 660 0
DWIDTH 11 0
BBX 11 13 -1 -1
BITMAP
0F80
1DC0
39C0
3980
7B00
3BC0
39E0
38E0
38E0
38E0
3BC0
7380
E000
ENDCHAR

STARTCHAR agrave
ENCODING 224
SWIDTH 580 0
DWIDTH 10 0
BBX 9 13 0 0
BITMAP
1800
1C00
0600
0000
3E00
7F00
E300
4F00
3F00
7300
E700
FF80
7380
ENDCHAR

STARTCHAR aacute
ENCODING 225
SWIDTH 580 0
DWIDTH 10 0
BBX 9 13 0 0
BITMAP
0600
0E00
1800
0000
3E00
7F00
E300
4F00
3F00
7300
E700
FF80
7380
ENDCHAR

STARTCHAR acircumflex
ENCODING 226
SWIDTH 580 0
DWIDTH 10 0
BBX 9 13 0 0
BITMAP
0C00
1E00
3300
0000
3E00
7F00
E300
4F00
3F00
7300
E700
FF80
7380
ENDCHAR

STARTCHAR atilde
ENCODING 227
SWIDTH 580 0
DWIDTH 10 0
BBX 9 12 0 0
BITMAP
1D00
2E00
0000
3E00
7F00
E300
4F00
3F00
7300
E700
FF80
7380
ENDCHAR

STARTCHAR adieresis
ENCODING 228
SWIDTH 580 0
DWIDTH 10 0
BBX 9 13 0 0
BITMAP
2200
7700
2200
0000
3E00
7F00
E300
4F00
3F00
7300
E700
FF80
7380
ENDCHAR

STARTCHAR aring
ENCODING 229
SWIDTH 580 0
DWIDTH 10 0
BBX 9 13 0 0
BITMAP
1C00
3600
3600
1C00
3E00
7F00
E300
4F00
3F00
7300
E700
FF80
7380
ENDCHAR

STARTCHAR ae
ENCODING 230
SWIDTH 880 0
DWIDTH 15 0
BBX 14 9 0 0
BITMAP
3CF0
7FF8
E79C
4FFC
3F00
7700
E798
FFF8
78F0
ENDCHAR

STARTCHAR ccedilla
ENCODING 231
SWIDTH 580 0
DWIDTH 9 0
BBX 9 12 0 -3
BITMAP
1E00
7F00
7380
E300
E000
E000
7300
7F00
1E00
1C00
0400
1800
ENDCHAR

STARTCHAR egrave
ENCODING 232
SWIDTH 580 0
DWIDTH 9 0
BBX 9 13 0 0
BITMAP
3000
3800
0C00
0000
1E00
7F00
7380
FF80
E000
E000
7300
7F00
1E00
ENDCHAR

STARTCHAR eacute
ENCODING 233
SWIDTH 580 0
DWIDTH 9 0
BBX 9 13 0 0
BITMAP
0600
0E00
1800
0000
1E00
7F00
7380
FF80
E000
E000
7300
7F00
1E00
ENDCHAR

STARTCHAR ecircumflex
ENCODING 234
SWIDTH 580 0
DWIDTH 9 0
BBX 9 13 0 0
BITMAP
1800
3C00
6600
0000
1E00
7F00
7380
FF80
E000
E000
7300
7F00
1E00
ENDCHAR

STARTCHAR edieresis
ENCODING 235
SWIDTH 580 0
DWIDTH 9 0
BBX 9 13 0 0
BITMAP
2200
7700
2200
0000
1E00
7F00
7380
FF80
E000
E000
7300
7F00
1E00
ENDCHAR

STARTCHAR igrave
ENCODING 236
SWIDTH 360 0
DWIDTH 6 0
BBX 5 13 0 0
BITMAP
C0
E0
30
00
30
F0
F0
70
70
70
70
F8
F8
ENDCHAR

STARTCHAR iacute
ENCODING 237
SWIDTH 360 0
DWIDTH 6 0
BBX 5 13 0 0
BITMAP
30
70
C0
00
30
F0
F0
70
70
70
70
F8
F8
ENDCHAR

STARTCHAR icircumflex
ENCODING 238
SWIDTH 360 0
DWIDTH 6 0
BBX 6 13 0 0
BITMAP
30
78
CC
00
30
F0
F0
70
70
70
70
F8
F8
ENDCHAR

STARTCHAR idieresis
ENCODING 239
SWIDTH 360 0
DWIDTH 6 0
BBX 7 13 -1 0
BITMAP
44
EE
44
00
18
78
78
38
38
38
38
7C
7C
ENDCHAR

STARTCHAR eth
ENCODING 240
SWIDTH 620 0
DWIDTH 10 0
BBX 9 13 0 0
BITMAP
6000
3B00
3C00
CE00
1E00
7F00
7700
E380
E380
E380
7700
7F00
1C00
ENDCHAR

STARTCHAR ntilde
ENCODING 241
SWIDTH 680 0
DWIDTH 11 0
BBX 10 12 0 0
BITMAP
1D00
2E00
0000
3700
FF80
FB80
7380
7380
7380
7380
FBC0
FBC0
ENDCHAR

STARTCHAR ograve
ENCODING 242
SWIDTH 620 0
DWIDTH 10 0
BBX 9 13 0 0
BITMAP
3000
3800
0C00
0000
1C00
7F00
7700
E380
E380
E380
7700
7F00
1C00
ENDCHAR

STARTCHAR oacute
ENCODING 243
SWIDTH 620 0
DWIDTH 10 0
BBX 9 13 0 0
BITMAP
0C00
1C00
3000
0000
1C00
7F00
7700
E380
E380
E380
7700
7F00
1C00
ENDCHAR

STARTCHAR ocircumflex
ENCODING 244
SWIDTH 620 0
DWIDTH 10 0
BBX 9 13 0 0
BITMAP
1800
3C00
6600
0000
1C00
7F00
7700
E380
E380
E380
7700
7F00
1C00
ENDCHAR

STARTCHAR otilde
ENCODING 245
SWIDTH 620 0
DWIDTH 10 0
BBX 9 12 0 0
BITMAP
3A00
5C00
0000
1C00
7F00
7700
E380
E380
E380
7700
7F00
1C00
ENDCHAR

STARTCHAR odieresis
ENCODING 246
SWIDTH 620 0
DWIDTH 10 0
BBX 9 13 0 0
BITMAP
2200
7700
2200
0000
1C00
7F00
7700
E380
E380
E380
7700
7F00
1C00
ENDCHAR

STARTCHAR divide
ENCODING 247
SWIDTH 600 0
DWIDTH 10 0
BBX 8 8 1 0
BITMAP
18
18
00
FF
FF
00
18
18
ENDCHAR

STARTCHAR oslash
ENCODING 248
SWIDTH 620 0
DWIDTH 10 0
BBX 9 11 0 -1
BITMAP
0080
1D00
7F00
7700
E780
EB80
F380
7700
7F00
5C00
8000
ENDCHAR

STARTCHAR ugrave
ENCODING 249
SWIDTH 660 0
DWIDTH 11 0
BBX 10 13 0 0
BITMAP
3000
3800
0C00
0000
3180
F780
F780
7380
7380
7380
7780
7FC0
3BC0
ENDCHAR

STARTCHAR uacute
ENCODING 250
SWIDTH 660 0
DWIDTH 11 0
BBX 10 13 0 0
BITMAP
0600
0E00
1800
0000
3180
F780
F780
7380
7380
7380
7780
7FC0
3BC0
ENDCHAR

STARTCHAR ucircumflex
ENCODING 251
SWIDTH 660 0
DWIDTH 11 0
BBX 10 13 0 0
BITMAP
0C00
1E00
3300
0000
3180
F780
F780
7380
7380
7380
7780
7FC0
3BC0
ENDCHAR

STARTCHAR udieresis
ENCODING 252
SWIDTH 660 0
DWIDTH 11 0
BBX 10 13 0 0
BITMAP
2200
7700
2200
0000
3180
F780
F780
7380
7380
7380
7780
7FC0
3BC0
ENDCHAR

STARTCHAR yacute
ENCODING 253
SWIDTH 620 0
DWIDTH 10 0
BBX 11 17 -1 -4
BITMAP
0180
0380
0600
0000
7DE0
7DE0
38C0
1C80
1D80
0F00
0F00
0600
0600
0C00
6C00
F800
7000
ENDCHAR

STARTCHAR thorn
ENCODING 254
SWIDTH 640 0
DWIDTH 11 0
BBX 10 16 0 -4
BITMAP
7000
F000
F000
7600
7F80
7380
71C0
71C0
71C0
7380
7F80
7600
7000
7000
F800
F800
ENDCHAR

STARTCHAR ydieresis
ENCODING 255
SWIDTH 620 0
DWIDTH 10 0
BBX 11 17 -1 -4
BITMAP
1100
3B80
1100
0000
7DE0
7DE0
38C0
1C80
1D80
0F00
0F00
0600
0600
0C00
6C00
F800
7000
ENDCHAR
ENDFONT
